<svg width="758" height="504" viewBox="0 0 758 504" fill="none" xmlns="http://www.w3.org/2000/svg">
<rect width="758" height="504" fill="#1D1D1D"/>
<path d="M468.696 159.841C480.05 159.841 488.804 163.555 494.959 170.983C501.114 178.411 504.191 189.394 504.191 203.932C504.191 218.363 501.114 229.293 494.959 236.721C488.804 244.043 480.05 247.704 468.696 247.704C458.933 247.704 451.081 244.52 445.138 238.154V277.151H413.463V161.751H439.249L441.955 173.689C448.109 164.457 457.023 159.841 468.696 159.841ZM458.827 183.239C454.158 183.239 450.656 184.884 448.322 188.174C445.987 191.463 444.82 195.761 444.82 201.067V206.319C444.82 211.625 445.987 215.976 448.322 219.371C450.656 222.661 454.158 224.306 458.827 224.306C467.953 224.306 472.516 218.841 472.516 207.911V199.475C472.516 188.651 467.953 183.239 458.827 183.239Z" fill="#A2FF20"/>
<path d="M394.948 159.682C397.388 159.682 399.564 160 401.474 160.637C403.384 161.167 404.339 161.486 404.339 161.592V188.174H394.152C387.573 188.174 382.798 189.871 379.826 193.267C376.961 196.663 375.529 201.703 375.529 208.388V245.794H343.854V161.751H369.799L371.868 174.485C373.778 169.604 376.802 165.943 380.941 163.502C385.079 160.955 389.748 159.682 394.948 159.682Z" fill="#A2FF20"/>
<path d="M289.1 159.841C304.486 159.841 316.212 163.449 324.277 170.665C332.447 177.881 336.533 188.916 336.533 203.772V209.184H273.501C273.501 215.233 274.827 219.796 277.48 222.873C280.239 225.95 284.537 227.489 290.373 227.489C295.679 227.489 299.552 226.375 301.993 224.146C304.539 221.918 305.813 218.947 305.813 215.233H336.533C336.533 225.42 332.66 233.378 324.913 239.109C317.167 244.839 305.866 247.704 291.01 247.704C275.411 247.704 263.314 244.096 254.719 236.88C246.123 229.558 241.826 218.522 241.826 203.772C241.826 189.341 246.017 178.411 254.4 170.983C262.783 163.555 274.35 159.841 289.1 159.841ZM290.373 180.056C280.398 180.056 274.827 184.778 273.66 194.222H304.539C304.539 189.871 303.266 186.423 300.719 183.876C298.279 181.329 294.83 180.056 290.373 180.056Z" fill="#A2FF20"/>
<path d="M206.599 136.283C213.39 136.283 219.439 137.875 224.745 141.059C230.05 144.136 234.189 148.434 237.16 153.952C240.131 159.363 241.617 165.465 241.617 172.256V174.326C241.617 181.117 240.131 187.271 237.16 192.789C234.189 198.307 230.05 202.658 224.745 205.842C219.439 208.919 213.39 210.458 206.599 210.458H180.336V245.794H145.159V136.283H206.599ZM180.336 184.831H194.82C198.534 184.831 201.293 183.876 203.097 181.966C205.007 180.056 205.962 177.456 205.962 174.166V172.893C205.962 169.497 205.007 166.897 203.097 165.094C201.293 163.183 198.534 162.228 194.82 162.228H180.336V184.831Z" fill="#A2FF20"/>
<path d="M612.841 281.764V303.252H595.014V335.245C595.014 339.065 595.651 341.878 596.924 343.681C598.197 345.379 600.532 346.228 603.928 346.228H612.841V364.851C610.294 365.7 607.005 366.39 602.973 366.921C598.94 367.451 595.438 367.716 592.467 367.716C583.129 367.716 575.913 366.019 570.82 362.623C565.832 359.227 563.339 353.444 563.339 345.273V303.252H551.56V281.764H564.612L571.457 256.296H595.014V281.764H612.841Z" fill="white"/>
<path d="M537.213 279.695C539.654 279.695 541.829 280.013 543.739 280.65C545.649 281.18 546.604 281.499 546.604 281.605V308.186H536.417C529.838 308.186 525.063 309.884 522.092 313.28C519.227 316.676 517.794 321.716 517.794 328.401V365.807H486.119V281.764H512.064L514.133 294.498C516.043 289.616 519.068 285.955 523.206 283.515C527.345 280.968 532.014 279.695 537.213 279.695Z" fill="white"/>
<path d="M431.364 279.854C446.751 279.854 458.477 283.462 466.541 290.677C474.712 297.893 478.798 308.929 478.798 323.785V329.197H415.766C415.766 335.246 417.092 339.808 419.745 342.886C422.504 345.963 426.801 347.502 432.638 347.502C437.943 347.502 441.817 346.388 444.257 344.159C446.804 341.931 448.077 338.96 448.077 335.246H478.798C478.798 345.433 474.924 353.391 467.178 359.121C459.432 364.852 448.13 367.717 433.274 367.717C417.676 367.717 405.579 364.109 396.983 356.893C388.388 349.571 384.09 338.535 384.09 323.785C384.09 309.354 388.282 298.424 396.665 290.996C405.048 283.568 416.614 279.854 431.364 279.854ZM432.638 300.069C422.663 300.069 417.092 304.791 415.925 314.235H446.804C446.804 309.884 445.531 306.435 442.984 303.889C440.543 301.342 437.095 300.069 432.638 300.069Z" fill="white"/>
<path d="M343.978 365.807V250.407H375.653V365.807H343.978Z" fill="white"/>
<path d="M286.2 279.854C299.04 279.854 309.492 282.029 317.557 286.38C325.622 290.624 329.654 297.575 329.654 307.231V340.021C329.654 341.825 330.079 343.31 330.928 344.478C331.777 345.645 333.05 346.228 334.748 346.228H340.478V364.533C340.16 364.745 339.311 365.117 337.931 365.647C336.658 366.072 334.801 366.496 332.36 366.921C329.92 367.451 327.107 367.717 323.924 367.717C317.769 367.717 312.676 366.815 308.644 365.011C304.717 363.101 302.011 360.501 300.526 357.211C296.493 360.395 291.984 362.941 286.996 364.852C282.009 366.762 276.173 367.717 269.487 367.717C249.75 367.717 239.881 359.864 239.881 344.159C239.881 335.988 242.057 329.781 246.407 325.536C250.864 321.185 257.231 318.214 265.508 316.622C273.785 315.031 284.609 314.235 297.979 314.235V310.096C297.979 306.807 296.812 304.313 294.477 302.615C292.249 300.917 289.331 300.069 285.723 300.069C282.433 300.069 279.568 300.652 277.128 301.819C274.793 302.987 273.626 304.844 273.626 307.39V308.027H242.428C242.322 307.497 242.269 306.754 242.269 305.799C242.269 297.84 246.036 291.526 253.57 286.857C261.21 282.188 272.087 279.854 286.2 279.854ZM297.979 329.197C288.959 329.197 282.274 330.205 277.923 332.221C273.679 334.131 271.557 336.731 271.557 340.021C271.557 345.326 275.164 347.979 282.38 347.979C286.519 347.979 290.127 346.865 293.204 344.637C296.387 342.408 297.979 339.649 297.979 336.36V329.197Z" fill="white"/>
</svg>
